<svg xmlns="http://www.w3.org/2000/svg" viewBox="0 0 24 32"><path d="M18.406 8.155a1.44 1.44 0 101.439 1.44 1.44 1.44 0 00-1.439-1.44zM12 20a4 4 0 114-4 4 4 0 01-4 4zm0-10.162A6.162 6.162 0 1018.162 16 6.162 6.162 0 0012 9.838zM12 4c-3.259 0-3.667.014-4.947.072-4.358.2-6.78 2.618-6.98 6.98C.014 12.333 0 12.741 0 16s.014 3.668.072 4.948c.2 4.358 2.618 6.78 6.98 6.98C8.333 27.986 8.741 28 12 28s3.668-.014 4.948-.072c4.354-.2 6.782-2.618 6.979-6.98.059-1.28.073-1.689.073-4.948s-.014-3.667-.072-4.947c-.196-4.354-2.617-6.78-6.979-6.98C15.668 4.014 15.259 4 12 4zm0 2.163c3.204 0 3.584.012 4.85.07 3.252.148 4.771 1.691 4.919 4.919.058 1.265.069 1.645.069 4.849 0 3.205-.012 3.584-.069 4.849-.149 3.225-1.664 4.771-4.919 4.919-1.266.058-1.644.07-4.85.07-3.204 0-3.584-.012-4.849-.07-3.26-.149-4.771-1.699-4.919-4.92-.058-1.265-.07-1.644-.07-4.849 0-3.204.013-3.583.07-4.849.149-3.227 1.664-4.771 4.919-4.919 1.266-.057 1.645-.069 4.849-.069z"/></svg>