<svg xmlns="http://www.w3.org/2000/svg" viewBox="0 0 5988.634 2024.522" style="width:67px;height:24px"><path d="M2077.662 952.462c-10.261 43.081-10.261 69.76-16.417 75.923-8.205 10.262-139.535 119.019-400.153 129.28-393.989 14.36-590.987-238.037-590.987-549.956 0-367.31 240.094-617.667 580.726-607.405 217.514 6.163 369.375 119.027 379.636 116.97 12.312-2.05 24.622-20.516 32.827-18.467 6.156 2.05 4.107 20.524 10.262 84.135 4.106 51.301 10.262 82.079 18.474 151.854 0 8.204 0 12.303-6.156 14.36-8.212 2.05-12.318-10.262-18.474-22.573-61.562-123.125-192.892-289.338-416.57-289.338-293.436 0-459.657 184.687-459.657 506.852 0 330.386 209.317 570.472 471.976 570.472 281.134 0 377.58-182.638 414.513-238.045 6.156-8.197 8.212-16.417 16.417-14.36 4.107 2.057 2.05 10.262 2.05 20.523-4.099 16.418-12.311 47.195-18.467 69.775m2132.871 104.653c-36.941 47.202-77.98 75.922-112.864 77.98-73.873 4.098-125.174 0-205.203-4.107-75.93-4.106-141.592-4.106-203.154-4.106-38.99 0-125.174 12.31-178.532 14.36-30.777 2.057-36.933 0-51.3-4.098-6.149-2.05-10.262-6.156-10.262-10.262 0-6.156 6.163-8.205 14.375-8.205 47.187-2.05 71.817-12.31 88.226-45.153 18.474-34.876 22.58-65.66 22.58-149.788 0-14.368 2.05-209.31 2.05-342.697 0-59.505 0-92.34-2.05-151.845-2.056-104.659-8.212-268.83-8.212-268.83-2.05-86.185-71.817-123.118-119.019-123.118-16.41 0-22.565-2.05-22.565-12.31s16.417-12.312 30.778-12.312c20.523-2.049 90.29 2.05 147.739 0 92.348 2.05 141.592 0 233.931 2.05 127.231-2.05 240.095-6.156 322.173-8.205 10.27 0 18.474 2.05 16.417 18.466-10.261 65.669-12.303 106.708-14.36 166.214 0 14.367-4.099 24.63-12.318 24.63-6.148 0-8.198-4.115-8.198-10.263 0-82.078-22.58-135.436-135.443-141.599-63.612-4.098-71.817-4.098-123.118-4.098-51.3 0-135.436 2.057-147.754 4.098-32.827 4.107-53.35 18.482-55.4 77.988 0 0-4.098 75.922-4.098 127.223v149.804c2.049 123.118 22.565 108.75 114.912 108.75 178.525 0 272.914 0 291.388-104.651 0-2.05 2.042-16.417 10.262-16.417 6.155 0 6.155 10.261 6.155 18.474-2.049 51.3-4.114 82.078-4.114 135.436 0 80.029 4.114 119.01 6.171 137.477 2.05 12.319 2.05 18.474-2.057 20.524-6.155 2.057-10.262-2.05-12.31-8.205-6.156-28.728-24.623-73.874-34.884-88.241-26.68-30.778-65.669-41.04-235.989-36.933-34.883 0-71.824 2.049-92.347 4.106-24.622 2.05-43.089 6.148-43.089 51.3v227.769c0 88.241 6.164 131.337 16.418 166.221 8.204 28.728 38.982 45.145 100.544 45.145 43.096 0 112.864-6.163 170.327-16.417 94.397-12.31 139.543-24.622 180.582-43.096 55.407-26.671 86.184-63.612 102.602-90.29 4.098-8.205 12.31-16.41 18.458-14.36 8.22 2.048 8.22 8.212 4.114 20.523-10.262 26.678-18.474 65.66-61.562 121.068M791.778 1182.272c-32.827-32.827-65.661-65.66-96.446-100.545 30.785-36.94 61.562-71.816 96.446-104.658 34.884 30.785 65.669 67.718 94.39 102.602-30.778 34.898-61.556 69.774-94.39 102.601M2644.35 55.715c-67.718 0-92.34 26.671-92.34 86.192 0 6.148-2.049 338.582 0 363.204 2.05 43.096 26.679 51.294 61.563 55.407 41.039 4.107 90.29 4.107 98.495 4.107 141.591 0 233.932-88.242 233.932-221.629 0-178.524-112.864-287.28-301.65-287.28m619.716 1095.79c-59.505 0-108.757-10.262-141.584-26.679-30.785-16.417-73.88-55.399-127.238-135.436-47.188-71.824-155.952-242.143-172.37-274.97-22.572-34.891-38.99-53.358-61.554-75.93-14.368-18.467-41.047-26.672-73.881-28.729-10.254 0-49.244-4.098-57.449-4.098-67.718-2.057-80.029 6.155-77.98 119.018 0 0 2.05 178.525 2.05 184.68 4.106 139.543 24.63 186.745 114.92 211.367 22.565 6.155 51.293 8.197 63.604 10.254 6.155 2.049 12.319 2.049 12.319 8.205 0 8.22-4.107 10.261-12.32 10.261-24.621 0-160.05-10.261-199.04-10.261-34.883 0-129.287 6.163-186.736 12.318-10.262 2.042-18.474-2.057-18.474-10.262 0-10.261 8.212-10.261 18.474-14.36 69.775-28.736 90.29-45.153 96.446-135.436 2.05-30.785 6.156-164.164 6.156-266.766 0-110.814-2.05-174.418-4.107-283.183-4.098-196.998-2.049-299.592-24.622-342.696-20.523-36.933-45.145-36.933-106.7-55.399-10.261-4.106-18.474-4.106-18.474-14.368 0-12.311 16.41-14.368 30.785-14.368 51.301 0 69.767 4.106 114.913 4.106 112.856 2.05 215.457-6.155 289.33-8.204 90.291-2.057 170.328 24.622 225.727 59.505 65.661 43.096 102.602 131.33 102.602 211.359 0 110.814-65.661 209.317-174.418 274.97-6.163 4.114-18.474 10.262-18.474 20.524 0 14.375 80.029 133.394 92.34 149.796 0 0 151.853 227.784 186.737 268.823 49.25 61.562 96.446 100.56 110.813 106.7 14.36 6.163 34.884 12.319 55.4 16.425 10.261 2.057 12.31 6.155 12.31 10.254 0 10.261-26.67 22.58-59.505 22.58M5957.957 37.336c-10.262 6.155-26.679 10.261-47.195 28.728-16.417 14.36-36.932 61.562-49.244 86.184-22.58 45.146-409.412 958.214-421.73 984.893-8.205 16.418-10.263 28.736-18.46 28.736-10.261 0-12.318-10.262-18.481-26.679 0 0-155.952-365.26-199.04-469.927-2.057-10.262-10.262-18.459-16.417-18.459-8.205 0-10.262 6.156-16.425 14.36-22.558 36.94-155.952 383.736-190.836 469.92-2.049 8.205-8.205 30.785-16.417 30.785-8.205 0-14.368-14.368-16.41-26.679-28.735-73.873-316.017-769.512-346.802-853.655-41.039-116.97-84.127-186.737-100.544-205.203-30.786-34.884-57.457-38.99-104.652-51.3-8.212-2.05-18.473-2.05-18.473-14.369 0-8.204 14.367-12.31 26.67-12.31 41.04 0 88.242 6.155 143.65 6.155 57.455 0 135.435-6.156 145.697-6.156 12.31 0 16.417 4.107 18.466 10.262 0 6.156-2.05 10.262-8.212 12.311-22.565 8.212-53.35 10.262-55.4 55.407 0 16.417 24.622 98.495 34.884 125.174 20.516 53.35 246.242 609.462 289.338 691.54 6.156 12.311 18.467 28.729 28.729 28.729 6.155 0 12.31-4.107 20.523-22.573 0 0 135.428-313.96 135.428-336.54 0-20.524-151.845-400.146-162.107-418.612-28.728-57.456-55.407-100.552-100.552-108.757-10.262-2.05-34.884-6.156-49.244-8.205-12.319-2.057-18.474-6.163-18.474-14.368 0-10.261 10.261-14.368 30.777-14.368 51.301 0 96.454 10.262 160.066 10.262 51.293 0 92.34-4.106 133.379-6.155 8.212 0 12.318 0 14.368 6.155s0 14.368-12.311 18.474c-38.99 14.36-49.252 24.622-49.252 61.555 0 51.3 90.29 260.61 92.34 268.815 6.156 20.523 12.311 34.891 26.671 34.891 10.262 0 16.425-8.212 24.63-26.67 6.155-16.426 73.873-180.59 90.29-233.94 4.107-20.523 4.107-41.039 2.058-53.35-4.107-34.891-34.884-41.047-75.931-55.407-10.262-4.106-12.303-6.155-12.303-14.368 0-8.205 10.254-8.205 22.565-8.205 20.523 0 51.3 10.254 90.29 8.205 0 0 114.913-6.155 125.175-6.155 8.212 0 16.41 2.049 16.41 8.204 0 10.262-6.149 14.368-14.361 16.425-20.524 6.156-32.826 10.254-47.202 22.565-16.41 12.311-30.778 38.99-41.04 65.669-22.564 45.145-94.388 215.472-121.06 285.232-30.777 84.135-24.63 98.503-24.63 98.503 10.262 59.506 168.271 400.145 172.37 408.35 16.424 26.679 22.58 36.94 32.842 36.94 8.196 0 18.458-24.622 24.621-32.834 36.94-65.669 232.93-558.07 271.928-656.565 4.098-10.261 49.244-123.125 49.244-155.951 0-26.68-16.417-47.203-34.884-53.358-18.474-8.205-41.04-16.417-59.514-20.524-6.147-2.049-16.41-8.204-16.41-14.36 0-8.205 8.206-8.205 16.41-8.205 12.312 0 45.154 6.156 119.02 6.156 41.046 0 90.29-2.05 114.912-2.05 12.319 0 18.467 0 20.524 10.255 2.056 10.261-4.107 12.31-10.262 16.417m-290.345 1658.562l321.022-323.892H1073.735v652.516h4914.899l-321.022-328.624zM491.25 53.264c-24.431 8.212-51.018 44.962-51.018 97.983 0 0 2.105 348.916 2.105 450.902 0 124.52 2.001 707.564-2.105 801.389-6.108 175.485-13.377 296.395-33.753 367.688-18.375 69.445-64.075 132.679-117.25 181.645-14.166 14.37-99.186 88.472-244.318 41.708C17.7 1985.812 0 1978.31 0 1949.72c0-49.017 16.322-87.717 34.697-87.717 20.376 0 35.197 56.68 100.484 56.68 77.503 0 170.723-93.759 183.377-282.922l5.5-938.62c-.03-201.083 1.972-527.57 1.972-527.57 0-59.077-26.535-97.88-81.608-114.202-38.752-12.268-73.449-14.32-73.449-28.59 0-14.267 18.375-16.32 36.699-16.32 14.371 0 91.823 10.213 153.055 10.213 55.022 0 116.203-4.055 138.685-4.055 20.427 0 34.645-2.053 34.645 10.163 0 18.375-16.22 16.321-42.806 26.484"/><path d="M1939.11 1545.917h181.241v54.247h-119.427v66.02h94.617v53.827h-94.616v115.643h-61.816zm487.799 221.193l-25.651 68.544h-65.601l107.652-289.737h66.862l107.232 289.737h-64.76l-25.651-68.544zm80.318-53.407l-30.697-100.923-29.437 100.923zm610.593 62.657c-25.23 38.268-69.385 63.499-121.95 63.499-82.841 0-145.498-66.863-145.498-148.443 0-82.42 62.657-148.863 145.499-148.863 51.723 0 95.457 24.39 120.687 61.396l-50.04 34.482c-15.56-22.708-40.79-37.847-70.647-37.847-48.36 0-83.684 40.37-83.684 90.832 0 50.042 35.323 90.411 83.684 90.411 30.276 0 56.77-16.4 72.328-39.949zm243.896-230.443h218.67v55.51h-78.217v234.227h-62.237v-234.228h-78.216zm610.59-3.364c82.421 0 147.181 66.442 147.181 148.863 0 81.58-64.76 148.443-147.18 148.443-82.002 0-146.761-66.863-146.761-148.443 0-82.42 64.76-148.863 146.76-148.863zm0 236.331c47.939 0 85.785-39.108 85.785-87.468s-37.846-87.887-85.785-87.887c-47.94 0-85.365 39.528-85.365 87.887s37.426 87.468 85.365 87.468zm635.819 56.77h-74.011l-64.76-100.083h-13.877v100.083h-61.816v-289.737h118.586c65.6 0 96.298 47.519 96.298 95.037 0 41.211-22.707 81.58-72.329 92.093zm-152.648-235.49v81.58h52.144c23.97 0 36.585-21.867 36.585-40.79 0-18.082-11.775-40.79-34.903-40.79zm492.847 235.49v-131.202l-111.858-158.535h73.17l69.806 108.493 70.648-108.493h73.17l-112.279 159.376v130.36z" fill="#fff"/></svg>