<svg xmlns="http://www.w3.org/2000/svg" viewBox="0 0 76 24" style="width:76px;height:24px"><g fill="#010101"><path d="M15.948 17.933c-.933-1.598-.127-3.72.335-4.864.95-2.392 2.32-4.387 3.275-6.715.285-.695.81-2.154.131-2.677-1.486-1.156-3.17.34-4.133 1.206-.327.294-.773.875-1.023.864-.464-.039-.231-.799-.152-1.178.202-.986.057-1.646-1.042-1.59a2.066 2.066 0 00-.767.313 12.338 12.338 0 00-2.036 1.847c-.328.33-.91 1.156-1.314 1.028-1.025-.357 1.06-2.697-.455-3.044-.778-.18-1.635.682-2.075.989q-2.53 1.696-5.063 3.386C1.213 7.772-.43 8.488.106 9.3c.424.615 1.463-.101 1.826-.348 1.154-.705 2.31-1.436 3.465-2.158.356-.24 1.176-.827 1.503-.684a.148.148 0 01.096.172A10.115 10.115 0 015.72 8.728c-1.107 1.825-1.985 3.886-3.103 5.716-.356.586-1.542 2.346-.283 2.724 1.182.354 1.933-1.538 2.31-2.265.807-1.503 1.603-3.015 2.408-4.518.739-1.277.982-2.246 2.188-3.079a30.165 30.165 0 012.076-1.326.837.837 0 01.895-.02c.348.401-.546 1.807-.856 2.34-1.06 1.8-1.932 3.78-2.856 5.693-.267.561-1.44 2.397-.325 2.76.948.292 1.659-1.813 1.997-2.415.838-1.443 1.625-2.917 2.496-4.343a9.39 9.39 0 012.55-3.109c.632-.463 1.246-.993 1.888-1.463.158-.116.516-.319.776-.151.236.151.134.583.02.802-.468.907-.89 1.533-1.331 2.315-.425.815-.827 1.63-1.255 2.458-.461 1.048-.899 1.99-1.35 3.124a4.82 4.82 0 00-.365 3.002 6.488 6.488 0 001.371 2.373c.273.323 1.464 1.786 2.036 1.672a.788.788 0 00.496-1.212c-.418-.611-1.144-1.171-1.555-1.873z"/><path d="M75.876 11.165a.51.51 0 00-.834.122c-.06.236-.112.56-.189.8a7.05 7.05 0 01-.447 1.035 6.628 6.628 0 01-3.292 2.64c-.629.29-2.433.949-2.822-.019-.32-.772.812-1.673 1.135-2.075.523-.533 1.053-1.062 1.55-1.588 1.025-1.261 1.972-2.37 2.94-3.666a6.928 6.928 0 00.759-1.127 2.23 2.23 0 00-.328-2.148 1.787 1.787 0 00-1.42-.075 6.512 6.512 0 00-2.332 1.693 15.031 15.031 0 00-3.184 4.426c-.549 1.264-.718 3.084-1.71 3.895a3.866 3.866 0 01-2.874.842 1.152 1.152 0 01-.815-1.927c.462-.644 1.152-1.058 1.628-1.66a28.922 28.922 0 003.54-4.656c.376-.725 1.324-2.449.346-3.187-1.19-.892-2.761.478-3.337 1.148a15.632 15.632 0 00-3.004 4.627c-.53 1.355-.604 3.504-1.723 4.364a7.58 7.58 0 01-2.946 1.37c-.602.135-1.474.19-1.784-.22-1.006-1.25 1.363-2.648 2.095-3.08.569-.302 1.593-.571.848-1.35-.254-.312-2.576 1.082-2.834-.226a.987.987 0 01.163-.7 2.66 2.66 0 011.621-1.205c.471-.182.906-.123 1.287-.365.988-.65-.118-1.11-.844-1.232a2.886 2.886 0 00-2.757 1.712c-.192.4-.35 1.165-.848 1.277-.425.104-1.166-.5-1.297-.708-.085-.138-.105-.353-.23-.454-.17-.115-.615-.107-.724.056a3.512 3.512 0 00-.177.79c-.103.413-.205.73-.342 1.122a10.819 10.819 0 01-1.716 2.814c-.232.319-.968 1.215-1.633.982-.59-.229-.226-1.379-.075-1.794.483-1.316 1.278-2.399 1.806-3.605.22-.49.165-1.025-.352-1.148-.714-.181-1.284 1.162-1.51 1.578-.421.748-.837 1.502-1.254 2.275a6.644 6.644 0 01-1.258 1.802c-.314.296-1.062.812-1.666.498-.53-.244-.116-1.264.073-1.654.638-1.138 1.276-2.308 1.917-3.474.226-.512.3-1.179-.244-1.409-.909-.4-1.326 1.282-1.564 1.839-.494 1.14-1.008 2.312-1.476 3.5-.15.414-.128.989-.368 1.314a6.303 6.303 0 01-1.866 1.106c-.564.25-2.656.91-3.224.216-.446-.529.033-1.188.335-1.54a6.158 6.158 0 012.11-1.402c.577-.242 1.175-.242 1.435-.796a.32.32 0 00-.063-.33c-.194-.254-1.33-.108-1.884-.328-.886-.347-.048-1.648.307-1.93.61-.46 2.632-.608 2.574-1.49-.006-.04-.033-.057-.06-.075a2.37 2.37 0 00-1.795-.1 3.118 3.118 0 00-2.297 1.7 1.778 1.778 0 00.984 2.553.252.252 0 01.063.16 12.645 12.645 0 01-1.792 1.334 12.587 12.587 0 01-2.348 1.638c-.657.27-1.745.517-1.98-.314-.217-.75.66-1.994.913-2.494.792-1.555 1.56-3.152 2.381-4.69.298-.565.522-1.075.832-1.603.227-.376 1.602-2.67.457-2.779-.487-.03-.97 1.11-1.497 1.977q-.912 1.7-1.812 3.41c-.264.447-.47 1.094-.759 1.305-.083.047-.33-.126-.497-.197a2.892 2.892 0 00-.83-.208 2.546 2.546 0 00-1.436.381 7.894 7.894 0 00-2.72 2.323c-.273.408-.547.834-.82 1.232a5.129 5.129 0 01-1.274 1.023 1.491 1.491 0 01-1.256.409 1.04 1.04 0 01-.647-1.432 6.201 6.201 0 01.838-1.108q.653-.884 1.312-1.762c.196-.2.741-.76.456-1.192a1.189 1.189 0 00-.418-.24c-.859-.396-.916.359-1.477.533a.226.226 0 01-.133.003c-.213-.124-.337-.442-.652-.579a3.228 3.228 0 00-2.44.45c-1.373.798-3.268 2.495-2.577 4.841a3.175 3.175 0 00.525.98 1.897 1.897 0 002.129.447c.313-.17.882-.747 1.353-.515l.439.35a2.187 2.187 0 001.521.432c.658-.123.82-.503 1.24-.818.084-.063.42-.28.607-.182.18.093.279.474.394.656a1.527 1.527 0 00.748.537 2.673 2.673 0 002.357-.212c.39-.255.649-.748 1.2-.816.376-.05.515.533.687.715a2.71 2.71 0 001.484.552 2.662 2.662 0 001.673-.389c.289-.184.628-.479.805-.437.097.05.157.703.756 1.08 1.33.84 3.58.108 4.595-.514.53-.374.8-.568 1.202-.898.375-.227.68.144.949.217a2.203 2.203 0 00.923.017 2.718 2.718 0 001.368-.68c.173-.185.31-.466.522-.527a.403.403 0 01.229.02c.245.197.18.91.757 1.32.939.656 1.86-.032 2.478-.476a7.723 7.723 0 002.554-3.24c.259-.553.578-1.682.761-1.72a4.186 4.186 0 01.846.441 19.929 19.929 0 001.832.806.45.45 0 01.254.542c-.153.362-.553.53-.844.75a2.838 2.838 0 00-1.025 1.494c-.51 1.76 1.615 2.582 3.29 2.296a6.634 6.634 0 002.346-.791c.261-.163.995-.81 1.295-.705.31.108.389.531.541.767a2.106 2.106 0 001.013.882 3.738 3.738 0 003.755-.766c.339-.248.729-.772.98-.78.423-.017.604 1.052.866 1.375a2.554 2.554 0 002.284.685 5.777 5.777 0 001.938-.59 9.855 9.855 0 004.005-3.562c.215-.353.806-1.968.427-2.517zm-6.775-.555a13.705 13.705 0 013.095-4.076 2.706 2.706 0 01.914-.573c.922-.055.645 1.141.343 1.598-.312.388-.607.793-.911 1.206-.567.769-1 1.408-1.596 2.128-.307.353-.629.706-.905 1.009-.304.367-1.021 1.186-1.633 1.188l-.038-.02a3.409 3.409 0 01.73-2.46zm-6.496-.472a20.128 20.128 0 011.202-2.234c.259-.33.517-.766.783-1.105a7.492 7.492 0 01.716-.84c.205-.178.356-.362.619-.38 1.255.06.473 1.489.174 1.96-.577.885-1.115 1.79-1.759 2.684-.29.382-.63.746-.927 1.107a3.495 3.495 0 01-1.27 1.147.16.16 0 01-.167-.041 3.32 3.32 0 01.63-2.298zM22.642 12.72a3.885 3.885 0 01-2.036 2.044c-.314.139-1.01.333-1.315.037-.39-.36-.133-1.124.056-1.507a4.193 4.193 0 011.966-1.893 1.935 1.935 0 01.774-.209.631.631 0 01.42.095c.361.222.294 1.079.135 1.433zm8.699.208a6.834 6.834 0 01-2.454 2.722 1.68 1.68 0 01-1.735-.121c-.556-.44-.097-1.274.173-1.66a6.61 6.61 0 012.247-2.13 2.751 2.751 0 011.047-.307c1.006.091 1.162.63.722 1.496z"/></g></svg>