<svg xmlns="http://www.w3.org/2000/svg" viewBox="0 0 23 32"><path fill-rule="evenodd" d="M11.5 4.501a11.5 11.5 0 11-3.285 22.537 12.182 12.182 0 001.181-2.464c.154-.514.821-3.183.821-3.183a3.238 3.238 0 002.773 1.437c3.696 0 6.212-3.337 6.212-7.855 0-3.388-2.875-6.623-7.29-6.623-5.442 0-8.214 3.902-8.214 7.188 0 2.002.77 3.748 2.361 4.415a.444.444 0 00.617-.308c.051-.206.154-.72.205-.924.103-.308.052-.36-.155-.616a3.321 3.321 0 01-.77-2.26 5.409 5.409 0 015.647-5.493c3.08 0 4.826 1.848 4.826 4.364 0 3.337-1.49 6.11-3.646 6.11a1.771 1.771 0 01-1.848-2.208 23.4 23.4 0 001.027-4.056 1.567 1.567 0 00-1.54-1.746c-1.232 0-2.208 1.284-2.208 2.978a4.77 4.77 0 00.36 1.848s-1.284 5.34-1.49 6.263a9.16 9.16 0 00-.205 2.619A11.496 11.496 0 0111.5 4.5z"/></svg>