<svg xmlns="http://www.w3.org/2000/svg" viewBox="0 0 118.333 117.068"><path fill="#fff" d="M9.167 5.144v66.93l50.001 39.85 49.999-39.85V5.144zM68.97 28.236c.394-.065.788-.66 1.05-.594.197.066.132.66.329 2.71.131 1.65.328 2.642.59 4.888 0 .265 0 .396-.196.463-.263.066-.394-.331-.591-.727-1.97-3.964-6.173-9.316-13.332-9.316a19.63 19.63 0 00-2.664.19v-.382l.007-.886a20.2 20.2 0 012.657-.112c6.961.199 11.821 3.833 12.15 3.766zm-26.34 18.63a6.15 6.15 0 01-2.935.684 8.274 8.274 0 01-1.19-.084 22.343 22.343 0 01-.268-3.439c0-7.641 3.22-13.693 8.431-16.943v2.13c-2.963 2.777-4.557 7.106-4.557 12.765a23.46 23.46 0 00.518 4.887zm-11.88.94a3.05 3.05 0 01-1.091-2.041c-.208-1.1-.573-2.93-.676-3.296a7.289 7.289 0 01-.156-.89c0-.68.468-.732.675-.732.624 0 .833.733 1.3 1.78 1.925 4.498 4.837 6.695 8.893 6.695 6.968 0 8.735-6.8 8.735-13.445V20.013c0-1.464 0-4.656-4.472-5.074-.416-.053-1.091-.105-1.091-.576 0-.47.52-.523.78-.523 1.04 0 6.614.367 7.811.367 1.403 0 3.692-.158 4.264-.158.467 0 .623.158.623.471 0 .314-.519.419-.727.471-1.249.262-2.6.419-2.86 1.78-.26 1.046-.313 2.091-.364 8.683v9.272c0 12.294-6.708 16.323-12.636 16.323a13.003 13.003 0 01-9.007-3.244zm38.78 28.567c-.788 0-5.122-.331-6.37-.331-1.116 0-4.137.199-5.976.397-.328.066-.59-.066-.59-.33 0-.331.262-.331.59-.463 2.234-.925 2.89-1.453 3.088-4.36.062-.942.183-4.858.195-8.08a27.92 27.92 0 003.283-.67l.001.16s.066 5.748.066 5.947c.132 4.493.788 6.012 3.678 6.805a18.005 18.005 0 002.035.33c.197.066.394.066.394.264 0 .265-.13.33-.394.33zM57.15 61.735c-8.602.315-14.263-3.37-16.997-8.93a14.277 14.277 0 004.305-.772c2.667 5.108 7.353 8.314 12.757 8.314 8.997 0 12.083-5.88 13.265-7.664.197-.264.263-.529.526-.463.13.067.065.33.065.661-.131.529-.394 1.52-.591 2.247a14.99 14.99 0 01-.525 2.444c-.263.33-4.466 3.832-12.806 4.163zm29.389 14.704a10.432 10.432 0 01-4.532-.86c-.985-.528-2.364-1.782-4.071-4.36-1.51-2.312-4.991-7.796-5.516-8.854a13.221 13.221 0 00-1.97-2.444 1.753 1.753 0 00-.272-.252 7.493 7.493 0 001.033-.854 2.983 2.983 0 00.7-1.77 6.658 6.658 0 004.449-6.638c0-5.748-3.612-9.25-9.653-9.25-2.167 0-2.956.859-2.956 2.775 0 .198-.065 10.901 0 11.694a1.78 1.78 0 00.44 1.218 12.09 12.09 0 01-3.762 1.413c-.024-1.445-.058-2.868-.092-4.679-.131-6.343-.065-9.646-.788-11.034-.657-1.189-1.445-1.189-3.415-1.784-.328-.132-.591-.132-.591-.462 0-.397.525-.462.985-.462 1.643 0 2.232.131 3.678.131 3.611.066 6.895-.197 9.258-.264a13.162 13.162 0 017.224 1.916 8.35 8.35 0 013.284 6.805c0 3.568-2.102 6.74-5.582 8.854-.197.132-.591.33-.591.66 0 .464 2.56 4.296 2.955 4.824 0 0 4.86 7.334 5.976 8.655a14.653 14.653 0 003.546 3.436 9.532 9.532 0 001.773.529c.328.066.394.198.394.33 0 .33-.854.727-1.904.727z"/></svg>